<?xml version="1.0" encoding="UTF-8" standalone="no"?>
<!-- Created with Inkscape (http://www.inkscape.org/) -->

<svg
   xmlns:dc="http://purl.org/dc/elements/1.1/"
   xmlns:cc="http://creativecommons.org/ns#"
   xmlns:rdf="http://www.w3.org/1999/02/22-rdf-syntax-ns#"
   xmlns:svg="http://www.w3.org/2000/svg"
   xmlns="http://www.w3.org/2000/svg"
   xmlns:sodipodi="http://sodipodi.sourceforge.net/DTD/sodipodi-0.dtd"
   xmlns:inkscape="http://www.inkscape.org/namespaces/inkscape"
   width="210mm"
   height="297mm"
   id="svg2"
   version="1.1"
   inkscape:version="0.48.4 r9939"
   sodipodi:docname="simbolos.svg">
  <defs
     id="defs4" />
  <sodipodi:namedview
     id="base"
     pagecolor="#ffffff"
     bordercolor="#666666"
     borderopacity="1.0"
     inkscape:pageopacity="0.0"
     inkscape:pageshadow="2"
     inkscape:zoom="1.0529405"
     inkscape:cx="364.83528"
     inkscape:cy="668.99959"
     inkscape:document-units="px"
     inkscape:current-layer="layer1"
     showgrid="false"
     inkscape:window-width="1920"
     inkscape:window-height="984"
     inkscape:window-x="0"
     inkscape:window-y="27"
     inkscape:window-maximized="1" />
  <metadata
     id="metadata7">
    <rdf:RDF>
      <cc:Work
         rdf:about="">
        <dc:format>image/svg+xml</dc:format>
        <dc:type
           rdf:resource="http://purl.org/dc/dcmitype/StillImage" />
        <dc:title></dc:title>
      </cc:Work>
    </rdf:RDF>
  </metadata>
  <g
     inkscape:label="Capa 1"
     inkscape:groupmode="layer"
     id="layer1">
    <g
       id="g3006"
       transform="matrix(0,-1.0158244,1.5231588,0,-14.533308,606.58951)">
      <text
         transform="scale(1.0120775,0.98806662)"
         sodipodi:linespacing="125%"
         id="text2985"
         y="490.12659"
         x="133.17476"
         style="font-size:264.62808228px;font-style:normal;font-weight:normal;line-height:125%;letter-spacing:0px;word-spacing:0px;fill:#000000;fill-opacity:1;stroke:none;font-family:Sans"
         xml:space="preserve"><tspan
           style="font-weight:bold;-inkscape-font-specification:Sans Bold"
           y="490.12659"
           x="133.17476"
           id="tspan2987"
           sodipodi:role="line">D</tspan></text>
      <path
         inkscape:connector-curvature="0"
         id="path3000"
         d="m 385.15841,435.11471 0,-16.61243 -111.68676,0 -111.68677,0 0,-31.3408 0,-31.3408 111.68677,0 111.68676,0 0,-16.59662 0,-16.59661 3.27813,0.98563 c 1.80296,0.5421 3.55932,1.30309 3.90303,1.69109 0.3437,0.388 5.21848,2.12047 10.83283,3.84992 5.61437,1.72945 17.5468,5.44531 26.51653,8.25747 8.96974,2.81216 16.90232,5.11302 17.62798,5.11302 0.72567,0 2.1024,0.61923 3.05942,1.37606 0.95704,0.75684 6.80516,2.93933 12.99583,4.84999 6.19066,1.91067 18.63033,5.77887 27.64369,8.59602 9.01338,2.81714 16.98457,5.12208 17.71376,5.12208 0.7292,0 1.32583,0.36851 1.32583,0.81892 0,0.45041 5.80951,2.6091 12.91003,4.79708 36.13562,11.13498 43.99919,13.66037 44.73475,14.36653 0.33026,0.31705 3.16544,1.39971 6.3004,2.40591 6.43207,2.06444 6.9928,2.79329 2.79058,3.62736 -1.60509,0.31859 -3.63167,1.11282 -4.5035,1.76497 -0.87183,0.65215 -6.17872,2.61128 -11.79307,4.35362 -5.61437,1.74233 -13.45045,4.17658 -17.41353,5.40943 -3.96308,1.23285 -12.31425,3.81679 -18.55815,5.74209 -6.24391,1.9253 -12.09202,4.08533 -12.99581,4.80007 -0.90379,0.71474 -2.20128,1.29952 -2.8833,1.29952 -0.68203,0 -8.88482,2.38799 -18.22846,5.30664 -9.34361,2.91864 -21.31175,6.64058 -26.59585,8.27098 -5.28412,1.63038 -10.28619,3.48814 -11.11575,4.12836 -0.82956,0.64021 -2.72103,1.44073 -4.20326,1.77891 -1.48225,0.3382 -8.63961,2.47291 -15.90526,4.74379 -7.26564,2.27089 -18.34425,5.69912 -24.61912,7.61828 -6.27488,1.91917 -11.67907,3.7951 -12.00934,4.16874 -0.33025,0.37365 -2.89724,1.39437 -5.70442,2.26829 l -5.10397,1.58893 0,-16.61244 z"
         style="fill:#000000" />
    </g>
    <g
       id="g3036"
       transform="matrix(-0.00948262,-1.0044416,1.72102,-0.01431961,-636.17536,506.68342)">
      <text
         transform="scale(0.98453958,1.0157032)"
         sodipodi:linespacing="125%"
         id="text3011"
         y="562.96295"
         x="96.937042"
         style="font-size:256.14508057px;font-style:normal;font-weight:normal;line-height:125%;letter-spacing:0px;word-spacing:0px;fill:#000000;fill-opacity:1;stroke:none;font-family:Sans"
         xml:space="preserve"><tspan
           style="font-weight:bold;-inkscape-font-specification:Sans Bold"
           y="562.96295"
           x="96.937042"
           id="tspan3013"
           sodipodi:role="line">I</tspan></text>
      <path
         inkscape:connector-curvature="0"
         id="path3026"
         d="m 276.82777,526.40894 0,-16.63287 -114.97959,0 -114.979566,0 0,-31.3408 0,-31.3408 114.947246,0 114.94726,0 0.37454,-16.07763 0.37451,-16.07763 23.26968,7.13042 c 12.79832,3.92172 25.25077,7.54008 27.67211,8.04079 2.42133,0.50071 5.19317,1.45499 6.15962,2.12063 0.96646,0.66563 6.06892,2.52968 11.33882,4.14233 25.93365,7.93598 41.35257,12.50156 44.13585,13.06873 1.68943,0.34428 3.90237,1.20229 4.91761,1.9067 1.70019,1.17965 9.51196,3.621 44.54005,13.91971 7.05872,2.07535 13.68397,4.36307 14.72275,5.08382 1.03881,0.72075 3.27099,1.59633 4.96043,1.94574 7.28078,1.50579 18.81295,5.53891 18.81295,6.57941 0,1.15701 -1.85036,1.78807 -28.06048,9.56998 -27.02463,8.02375 -30.79811,9.23315 -30.79811,9.87086 0,0.34608 -2.30986,1.20008 -5.13302,1.89777 -4.98272,1.23139 -16.28585,4.60157 -42.43293,12.65196 -6.9638,2.14407 -12.66146,4.24869 -12.66146,4.67691 0,0.42822 -0.76994,0.77718 -1.711,0.77546 -0.94105,-0.002 -8.48659,2.08069 -16.76785,4.62758 -8.28128,2.5469 -21.21647,6.45853 -28.7449,8.6925 -7.52843,2.23398 -13.99603,4.31847 -14.37245,4.6322 -0.70144,0.58462 -8.16714,3.11678 -16.08346,5.45508 l -4.44861,1.31402 0,-16.63287 0,0 z"
         style="fill:#000000" />
    </g>
    <text
       xml:space="preserve"
       style="font-size:500.68585205px;font-style:normal;font-weight:normal;line-height:125%;letter-spacing:0px;word-spacing:0px;fill:#000000;fill-opacity:1;stroke:none;font-family:Sans"
       x="-985.21027"
       y="396.82227"
       id="text3028"
       sodipodi:linespacing="125%"
       transform="matrix(0,-1.0637184,0.94009845,0,0,0)"><tspan
         sodipodi:role="line"
         id="tspan3030"
         x="-985.21027"
         y="396.82227"
         style="font-weight:bold;-inkscape-font-specification:Sans Bold">O</tspan></text>
    <text
       xml:space="preserve"
       style="font-size:472.09106445px;font-style:normal;font-weight:normal;line-height:125%;letter-spacing:0px;word-spacing:0px;fill:#000000;fill-opacity:1;stroke:none;font-family:Sans"
       x="414.35999"
       y="953.91504"
       id="text3032"
       sodipodi:linespacing="125%"
       transform="scale(0.93951875,1.0643747)"><tspan
         sodipodi:role="line"
         id="tspan3034"
         x="414.35999"
         y="953.91504"
         style="font-weight:bold;-inkscape-font-specification:Sans Bold">X</tspan></text>
  </g>
</svg>
